<svg xmlns="http://www.w3.org/2000/svg" width="1189" height="259" fill="none" viewBox="0 0 1189 259" role="img" aria-labelledby="bhm-logo-title">
  <title id="bhm-logo-title">Detroit Black History Month Innovation Summit logo</title>
<g fill="#fecb06" stroke="#fff" filter="url(#a)"><path d="M1139.29 108.5V127h-24.06v62.5h-22.41V127h-24.06v-18.5zM1066.05 108.5v81h-22.72v-81zM973.12 108.5l.13.31 18.46 45h.27l18.47-45 .12-.31h27.87v81h-22.25v-45.7l-17.47 44.76-.13.31h-13.5l-.12-.31-17.47-45.06v46h-22.25v-81zM875.04 108.5l.13.31 18.46 45h.27l18.47-45 .12-.31h27.87v81H918.1v-45.7l-17.47 44.76-.13.31h-13.5l-.12-.31-17.47-45.06v46h-22.25v-81zM794.9 108.5v49.88q0 3.6 1.58 6.39t4.34 4.34q2.8 1.58 6.4 1.58 3.63 0 6.4-1.58 2.76-1.58 4.34-4.34 1.56-2.8 1.57-6.4V108.5h22.72v51.75q0 9.27-4.46 16.1-4.42 6.76-12.31 10.45-7.9 3.64-18.26 3.64-10.45 0-18.34-3.64a29 29 0 0 1-12.31-10.46q-4.39-6.82-4.38-16.09V108.5zM736.17 107.4q9.77 0 16.97 3.3 7.18 3.29 11.1 9.31l.25.38q3.7 5.87 3.74 13.6v.51H746.5l-.04-.46q-.3-3.74-2.75-5.75c-1.6-1.35-4.07-2.07-7.53-2.07q-3.3 0-5.33.79a6 6 0 0 0-2.9 1.98 5 5 0 0 0-.96 2.83v.02q-.08 1.32.45 2.36.56 1 1.8 1.89l.32.2q1.2.75 2.96 1.38 2.03.73 4.85 1.3l6.57 1.42a50 50 0 0 1 11.48 3.75q4.8 2.33 7.88 5.53l.37.4q2.8 3 4.15 6.72 1.48 3.96 1.52 8.61-.04 8.03-4.04 13.66-4.01 5.6-11.4 8.5-7.35 2.88-17.56 2.88-10.5 0-18.4-3.12a26 26 0 0 1-12.25-9.68q-4.36-6.61-4.39-16.76v-.5h21.6l.03.47q.2 3.56 1.75 5.92a9.7 9.7 0 0 0 4.4 3.6l.36.16q2.77 1.09 6.58 1.1 3.42-.01 5.65-.83 2.24-.83 3.34-2.23a5 5 0 0 0 1.14-3.16 4.4 4.4 0 0 0-1.1-2.88v-.01q-1.01-1.28-3.55-2.36h-.01a40 40 0 0 0-6.98-2.08l-7.97-1.72q-10.72-2.32-16.98-7.8-6.28-5.62-6.22-15.19a22.5 22.5 0 0 1 4.15-13.6q4.24-5.87 11.65-9.12 7.46-3.25 17.04-3.24ZM629.92 108.5l.15.22 28.15 41.45V108.5h22.72v81h-18.89l-.15-.22-28.46-41.38v41.6h-22.72v-81zM566.66 107.4q10.98 0 19.93 4.8l.55.3a35 35 0 0 1 13.67 13.75q5.27 9.29 5.26 22.75.01 13.46-5.26 22.78a35.4 35.4 0 0 1-14.22 14.07 42 42 0 0 1-19.93 4.74q-11.04 0-20-4.78a35.7 35.7 0 0 1-14.18-14.1q-5.24-9.34-5.22-22.71 0-13.46 5.22-22.75l.33-.57a35 35 0 0 1 13.85-13.49q8.96-4.79 20-4.78Zm0 19.91q-5.25 0-8.81 2.5-3.53 2.42-5.4 7.26-1.85 4.8-1.85 11.93t1.84 11.97q1.88 4.79 5.4 7.27 3.56 2.44 8.82 2.45 5.27-.01 8.78-2.45 3.58-2.48 5.4-7.27 1.88-4.85 1.89-11.97-.01-7.12-1.88-11.93-1.85-4.83-5.4-7.27h-.01q-3.51-2.48-8.78-2.49ZM522.68 108.5v81h-22.72v-81zM497.19 108.5V127h-24.07v62.5h-22.4V127h-24.07v-18.5zM410.09 108.5l.11.34 26.4 80 .22.66h-24.5l-.1-.35-4.52-14.96h-25.63l-4.52 14.96-.1.35h-24.5l.2-.66 26.42-80 .1-.34zm-22.82 48.44h15.23l-7.62-25.21zM308.5 108.5l.1.36 16.24 55.83 16.24-55.83.1-.36h25.6l-.21.66-26.41 80-.12.34h-30.4l-.12-.34-26.4-80-.22-.66zM246.74 107.4q10.97 0 19.92 4.8l.56.3a35 35 0 0 1 13.67 13.75q5.26 9.29 5.26 22.75t-5.26 22.78a35.4 35.4 0 0 1-14.23 14.07 42 42 0 0 1-19.92 4.74q-11.06 0-20-4.78a35.7 35.7 0 0 1-14.18-14.1q-5.24-9.34-5.23-22.71 0-13.46 5.22-22.75l.34-.57a35 35 0 0 1 13.85-13.49q8.94-4.79 20-4.78Zm0 19.91q-5.26 0-8.82 2.5-3.53 2.42-5.4 7.26-1.83 4.8-1.84 11.93 0 7.12 1.84 11.97 1.87 4.79 5.4 7.27 3.56 2.44 8.82 2.45 5.26-.01 8.78-2.45 3.57-2.48 5.4-7.27 1.88-4.85 1.88-11.97t-1.88-11.93q-1.83-4.83-5.4-7.27-3.52-2.48-8.78-2.49ZM151.76 108.5l.15.22 28.15 41.45V108.5h22.71v81H183.9l-.15-.22-28.47-41.38v41.6h-22.72v-81zM76.66 108.5l.15.22 28.15 41.45V108.5h22.72v81H108.8l-.15-.22-28.46-41.38v41.6H57.46v-81zM52.57 108.5v81H29.85v-81z"/></g><path fill="url(#b)" d="M1069.26 125.5V108h69.53v17.5h-24.06V188h-21.41v-62.5z" opacity=".63"/><path fill="url(#c)" d="M1065.55 108v80h-21.72v-80z" opacity=".63"/><path fill="url(#d)" d="M945.75 108h27.03l18.6 45.31h.94L1010.9 108h27.03v80h-21.25v-46.25h-.62l-17.82 45.63h-12.81l-17.81-45.94H967V188h-21.25z" opacity=".63"/><path fill="url(#e)" d="M847.67 108h27.03l18.6 45.31h.93l18.6-45.31h27.03v80H918.6v-46.25h-.63l-17.8 45.63h-12.82l-17.81-45.94h-.63V188h-21.25z" opacity=".63"/><path fill="url(#f)" d="M820.03 108h21.72v51.25q0 9.15-4.37 15.82a28.5 28.5 0 0 1-12.11 10.27q-7.78 3.6-18.05 3.6-10.35 0-18.13-3.6a28.5 28.5 0 0 1-12.1-10.27q-4.3-6.68-4.3-15.82V108h21.72v49.38q0 3.7 1.64 6.64 1.64 2.88 4.53 4.53a13.4 13.4 0 0 0 6.64 1.64q3.75 0 6.64-1.64 2.9-1.64 4.53-4.53a13.4 13.4 0 0 0 1.64-6.65z" opacity=".63"/><path fill="url(#g)" d="M746.95 133q-.3-3.9-2.93-6.1-2.58-2.18-7.85-2.18-3.37 0-5.5.82a6.6 6.6 0 0 0-3.13 2.15 5.3 5.3 0 0 0-1.06 3.12q-.07 1.45.51 2.62a6 6 0 0 0 1.95 2.07q1.33.9 3.4 1.64 2.07.75 4.92 1.33l6.57 1.4a49 49 0 0 1 11.36 3.72 27 27 0 0 1 7.74 5.43q3 3.08 4.41 6.95a25 25 0 0 1 1.49 8.44q-.05 7.89-3.95 13.36t-11.17 8.32q-7.23 2.85-17.38 2.85-10.44 0-18.2-3.09a25.4 25.4 0 0 1-12.04-9.5q-4.26-6.43-4.3-16.47h20.63q.2 3.66 1.84 6.17a10.2 10.2 0 0 0 4.6 3.79q3.02 1.28 7.15 1.28 3.48 0 5.82-.85a8 8 0 0 0 3.56-2.39 5.6 5.6 0 0 0 1.25-3.47 5 5 0 0 0-1.21-3.2q-1.13-1.41-3.75-2.5a40 40 0 0 0-7.07-2.12l-7.97-1.72q-10.63-2.3-16.76-7.69-6.1-5.44-6.05-14.8a22 22 0 0 1 4.06-13.32q4.14-5.74 11.44-8.95 7.35-3.2 16.84-3.2 9.69 0 16.76 3.24a25 25 0 0 1 10.9 9.14q3.86 5.86 3.9 13.71z" opacity=".63"/><path fill="url(#h)" d="M680.44 108v80H662.3l-28.9-42.03h-.47V188h-21.72v-80h18.44l28.43 41.88h.63V108z" opacity=".63"/><path fill="url(#i)" d="M605.57 148q0 13.36-5.2 22.54a35 35 0 0 1-14.02 13.87 41.3 41.3 0 0 1-19.69 4.68q-10.94 0-19.76-4.72a35 35 0 0 1-13.99-13.9q-5.15-9.2-5.15-22.47 0-13.35 5.15-22.5a34.6 34.6 0 0 1 13.99-13.87q8.82-4.72 19.76-4.72 10.86 0 19.7 4.72a34.5 34.5 0 0 1 14.01 13.87q5.2 9.15 5.2 22.5m-22.34 0q0-7.2-1.92-12.1-1.87-4.98-5.58-7.5-3.67-2.6-9.07-2.59-5.38 0-9.1 2.58-3.66 2.55-5.58 7.5-1.88 4.92-1.88 12.11 0 7.2 1.88 12.15 1.9 4.92 5.58 7.5 3.72 2.54 9.1 2.54 5.4 0 9.07-2.54 3.7-2.58 5.58-7.5 1.92-4.96 1.92-12.15" opacity=".63"/><path fill="url(#j)" d="M522.18 108v80h-21.72v-80z" opacity=".63"/><path fill="url(#k)" d="M427.15 125.5V108h69.54v17.5h-24.07V188h-21.4v-62.5z" opacity=".63"/><path fill="url(#l)" d="M377.07 188h-23.44l26.41-80h29.69l26.4 80H412.7l-17.5-57.97h-.63zm-4.37-31.56h44.06v16.25H372.7z" opacity=".63"/><path fill="url(#m)" d="m308.12 108 16.4 56.4h.63l16.4-56.4h24.54l-26.4 80h-29.7l-26.4-80z" opacity=".63"/><path fill="url(#n)" d="M285.65 148q0 13.36-5.2 22.54a35 35 0 0 1-14.02 13.87 41.3 41.3 0 0 1-19.69 4.68q-10.94 0-19.77-4.72a35 35 0 0 1-13.98-13.9q-5.16-9.2-5.16-22.47 0-13.35 5.16-22.5a34.6 34.6 0 0 1 13.98-13.87q8.84-4.72 19.77-4.72 10.86 0 19.69 4.72a34.5 34.5 0 0 1 14.02 13.87q5.2 9.15 5.2 22.5m-22.35 0q0-7.2-1.91-12.1-1.87-4.98-5.59-7.5-3.68-2.6-9.06-2.59-5.4 0-9.1 2.58-3.67 2.55-5.59 7.5-1.87 4.92-1.87 12.11 0 7.2 1.87 12.15 1.92 4.92 5.59 7.5 3.7 2.54 9.1 2.54t9.06-2.54q3.72-2.58 5.59-7.5 1.92-4.96 1.91-12.15" opacity=".63"/><path fill="url(#o)" d="M202.27 108v80h-18.12l-28.9-42.03h-.48V188h-21.72v-80h18.44l28.44 41.88h.63V108z" opacity=".63"/><path fill="url(#p)" d="M127.18 108v80h-18.12l-28.91-42.03h-.47V188H57.96v-80H76.4l28.44 41.88h.62V108z" opacity=".63"/><path fill="url(#q)" d="M52.07 108v80H30.35v-80z" opacity=".63"/><path fill="#fff" d="M241.03 33V3.9h7.9v22.74h11.76V33zM219.55 33h-8.52l9.6-29.1h10.8l9.6 29.1h-8.52l-6.37-21.08h-.22zm-1.59-11.48h16.02v5.91h-16.02zM203.14 3.9h7.9v18.65q0 3.32-1.59 5.75a10.4 10.4 0 0 1-4.4 3.73q-2.84 1.32-6.56 1.31-3.77 0-6.6-1.3a10.4 10.4 0 0 1-4.4-3.74 10.4 10.4 0 0 1-1.56-5.75V3.9h7.9v17.95q0 1.34.6 2.42.59 1.05 1.64 1.65 1.07.6 2.42.6t2.4-.6a4.3 4.3 0 0 0 1.66-1.65q.6-1.07.6-2.42zM185 3.9V33h-6.6L167.9 17.72h-.17V33h-7.9V3.9h6.7l10.35 15.24h.22V3.9zM158.89 3.9V33h-6.6l-10.5-15.28h-.18V33h-7.9V3.9h6.71l10.34 15.24h.23V3.9zM112.24 33h-8.53l9.6-29.1h10.8l9.6 29.1h-8.52l-6.36-21.08h-.23zm-1.6-11.48h16.03v5.91h-16.03zM32.65 28.45v-6.13L44.35 3.9h5.57v8.18h-3.18l-6.3 10v.23H57.7v6.13zM46.8 33v-6.42l.17-2.67v-20h7.38V33zM75.6 25.21V7.76h4.74v6.82h6.27V7.76h4.74V25.2h-4.74V18.4h-6.27v6.82zM58.65 11.58V7.76h15.17v3.82h-5.25V25.2H63.9V11.58zM280.18 245v-29.1h12.56q3.24 0 5.66 1.29a9.3 9.3 0 0 1 3.78 3.6q1.35 2.3 1.35 5.4 0 3.13-1.39 5.41a9 9 0 0 1-3.88 3.53 13 13 0 0 1-5.8 1.23h-7.5v-6.13h5.9q1.4 0 2.37-.49 1-.5 1.52-1.4.54-.9.54-2.15t-.54-2.13a3.4 3.4 0 0 0-1.52-1.36 5 5 0 0 0-2.37-.48h-2.78V245zm54.43-14.54q0 4.85-1.89 8.2a12.7 12.7 0 0 1-5.1 5.03 15 15 0 0 1-7.16 1.7q-3.97 0-7.18-1.71a13 13 0 0 1-5.09-5.06q-1.87-3.34-1.87-8.16 0-4.86 1.87-8.19a12.6 12.6 0 0 1 5.09-5.04 15 15 0 0 1 7.18-1.72q3.95 0 7.16 1.72a12.6 12.6 0 0 1 5.1 5.04q1.9 3.33 1.9 8.19m-8.12 0q0-2.63-.7-4.4a5.6 5.6 0 0 0-2.03-2.74 5.6 5.6 0 0 0-3.3-.93q-1.95 0-3.3.93a5.7 5.7 0 0 0-2.04 2.73q-.68 1.8-.68 4.4 0 2.62.68 4.42a6 6 0 0 0 2.03 2.73q1.35.92 3.31.92t3.3-.92a5.7 5.7 0 0 0 2.03-2.73q.7-1.8.7-4.41M343.82 245l-8.58-29.1h8.8l3.98 17.9h.23l4.71-17.9h6.94l4.71 17.96h.23l3.98-17.95h8.8L369.04 245h-7.55l-4.95-16.25h-.22L351.37 245zm36.36 0v-29.1h20.97v6.37h-13.07v5h11.99v6.37h-12v5h13.02V245zm24.88 0v-29.1h12.56q3.24 0 5.67 1.19a9 9 0 0 1 3.77 3.4q1.36 2.2 1.36 5.3 0 3.13-1.4 5.28a8.6 8.6 0 0 1-3.87 3.23q-2.5 1.1-5.81 1.1h-7.5v-6.14h5.9q1.4 0 2.38-.34a3 3 0 0 0 1.52-1.12 3.4 3.4 0 0 0 .54-2 3.5 3.5 0 0 0-.54-2.04 3 3 0 0 0-1.52-1.16 7 7 0 0 0-2.38-.38h-2.78V245zm17.05-13.35 7.27 13.35h-8.58l-7.1-13.35zm17.57-15.74V245h-7.9v-29.1zm28.91 0V245H462l-10.51-15.28h-.17V245h-7.9v-29.1h6.7l10.35 15.24h.22V215.9zm22.63 9.6a3.9 3.9 0 0 0-2.94-2.91 6 6 0 0 0-1.7-.21q-1.98 0-3.38.95a6 6 0 0 0-2.14 2.74 12 12 0 0 0-.72 4.32q0 2.55.7 4.37a6 6 0 0 0 2.07 2.79q1.38.96 3.42.96 1.8 0 3-.52 1.2-.53 1.8-1.5.6-.96.6-2.27l1.36.15h-6.64v-5.63h12.9v4.03q0 3.99-1.7 6.8a11 11 0 0 1-4.63 4.33q-2.93 1.5-6.74 1.49-4.25 0-7.46-1.8a12.7 12.7 0 0 1-5.02-5.15 16.6 16.6 0 0 1-1.79-7.94q0-3.6 1.1-6.4a13.4 13.4 0 0 1 3.07-4.7 13 13 0 0 1 4.53-2.9q2.57-1 5.5-1 2.6 0 4.81.74 2.24.72 3.93 2.07 1.72 1.34 2.78 3.17t1.27 4.02zM522.39 245h-11.2v-29.1h11.08q4.5.01 7.76 1.76a12 12 0 0 1 5.06 5 16 16 0 0 1 1.79 7.8q0 4.54-1.78 7.8a12 12 0 0 1-5.03 5 16 16 0 0 1-7.68 1.74m-3.3-6.7h3.01a9 9 0 0 0 3.68-.7 4.7 4.7 0 0 0 2.33-2.4q.81-1.71.81-4.74t-.82-4.75a4.7 4.7 0 0 0-2.39-2.4 9 9 0 0 0-3.83-.7h-2.79zm21.44 6.7v-29.1h20.97v6.37h-13.07v5h11.99v6.37h-12v5h13.02V245zm24.09-22.73v-6.36h25.28v6.36h-8.75V245h-7.78v-22.73zM592.87 245v-29.1h12.56q3.24 0 5.67 1.19a9 9 0 0 1 3.78 3.4q1.35 2.2 1.35 5.3 0 3.13-1.4 5.28a8.6 8.6 0 0 1-3.87 3.23q-2.5 1.1-5.81 1.1h-7.5v-6.14h5.9q1.4 0 2.38-.34a3 3 0 0 0 1.52-1.12 3.4 3.4 0 0 0 .54-2 3.5 3.5 0 0 0-.54-2.04 3 3 0 0 0-1.52-1.16 7 7 0 0 0-2.37-.38h-2.79V245zm17.05-13.35 7.27 13.35h-8.58l-7.1-13.35zm37.86-1.2q0 4.87-1.9 8.2a12.7 12.7 0 0 1-5.1 5.04 15 15 0 0 1-7.15 1.7q-3.98 0-7.19-1.71a13 13 0 0 1-5.09-5.06q-1.87-3.34-1.87-8.16 0-4.86 1.88-8.19a12.6 12.6 0 0 1 5.08-5.04 15 15 0 0 1 7.19-1.72q3.95 0 7.16 1.72a12.6 12.6 0 0 1 5.1 5.04q1.89 3.33 1.89 8.19m-8.13 0q0-2.6-.7-4.4a5.6 5.6 0 0 0-2.03-2.73 5.6 5.6 0 0 0-3.3-.93q-1.95 0-3.3.93a5.7 5.7 0 0 0-2.03 2.73q-.68 1.8-.68 4.4 0 2.62.68 4.42a6 6 0 0 0 2.03 2.73q1.35.92 3.3.92 1.96 0 3.3-.92a5.7 5.7 0 0 0 2.04-2.73q.7-1.8.7-4.41m19.68-14.54V245h-7.9v-29.1zm2.94 6.36v-6.36h25.29v6.36h-8.75V245h-7.78v-22.73zm34.85-6.36v3.4q0 1.4-.57 2.8-.55 1.37-1.42 2.56-.84 1.18-1.76 1.98l-3.24-1.65q.6-1.02 1.07-2.37t.47-3.31v-3.41zM716.5 225a3 3 0 0 0-1.07-2.22q-.94-.8-2.85-.8-1.23 0-2 .3a2.4 2.4 0 0 0-1.14.79q-.38.49-.39 1.14-.03.51.19.95.23.4.7.75.5.33 1.24.6.75.27 1.8.48l2.38.51q2.42.52 4.13 1.35a10 10 0 0 1 2.82 1.97q1.1 1.13 1.6 2.53.52 1.4.54 3.07a8.2 8.2 0 0 1-1.43 4.86 8.8 8.8 0 0 1-4.07 3.02q-2.63 1.04-6.32 1.04-3.79 0-6.62-1.12a9.2 9.2 0 0 1-4.37-3.45q-1.54-2.34-1.56-6h7.5q.07 1.34.66 2.25t1.68 1.38q1.1.46 2.6.46 1.26 0 2.12-.3.85-.32 1.29-.87.44-.56.45-1.27a1.8 1.8 0 0 0-.44-1.16 3.4 3.4 0 0 0-1.36-.91q-.96-.41-2.57-.77l-2.9-.62q-3.86-.84-6.1-2.8-2.2-1.98-2.2-5.39a8 8 0 0 1 1.48-4.84q1.51-2.1 4.16-3.25a15 15 0 0 1 6.13-1.17q3.52 0 6.09 1.18a9 9 0 0 1 3.96 3.32 9 9 0 0 1 1.42 4.99zm18.92 20v-29.1h20.46v6.37H743.3v5h11.3v6.37h-11.3V245zM776 215.9h7.9v18.64q0 3.33-1.6 5.76a10.4 10.4 0 0 1-4.4 3.73 15.5 15.5 0 0 1-6.56 1.31q-3.75 0-6.6-1.3a10.4 10.4 0 0 1-4.4-3.74 10.4 10.4 0 0 1-1.56-5.76v-18.63h7.9v17.95q0 1.34.6 2.42.6 1.05 1.64 1.65 1.07.6 2.42.6 1.36 0 2.41-.6a4.3 4.3 0 0 0 1.65-1.65q.6-1.07.6-2.42zm10.86 6.37v-6.36h25.28v6.36h-8.75V245h-7.78v-22.73zm45.47-6.36h7.9v18.63q0 3.33-1.6 5.76a10.4 10.4 0 0 1-4.4 3.73 15.5 15.5 0 0 1-6.56 1.31q-3.76 0-6.6-1.3a10.4 10.4 0 0 1-4.4-3.74 10.4 10.4 0 0 1-1.56-5.76v-18.63h7.9v17.95q0 1.34.6 2.42.6 1.05 1.64 1.65 1.07.6 2.42.6 1.36 0 2.41-.6a4.3 4.3 0 0 0 1.65-1.65q.6-1.07.6-2.42zM843.97 245v-29.1h12.56q3.23 0 5.66 1.19a9 9 0 0 1 3.78 3.4q1.35 2.2 1.35 5.3 0 3.13-1.4 5.28a8.6 8.6 0 0 1-3.87 3.23q-2.5 1.1-5.8 1.1h-7.5v-6.14h5.9q1.4 0 2.37-.34a3 3 0 0 0 1.52-1.12q.54-.77.54-2a3.5 3.5 0 0 0-.54-2.04 3 3 0 0 0-1.52-1.16 7 7 0 0 0-2.37-.38h-2.78V245zM861 231.65 868.3 245h-8.58l-7.1-13.35zM870.7 245v-29.1h20.96v6.37H878.6v5h11.98v6.37h-11.99v5h13.02V245z"/><path fill="#ff6974" d="M898.3 100V55.64h8.03v18.78h20.56V55.64h8.06V100h-8.06V81.15h-20.56V100zM860.04 62.37v-6.73h35.4v6.73h-13.72V100h-7.97V62.37zM857.2 55.64V100h-7.15l-20.9-30.22h-.37V100h-8.04V55.64h7.2l20.88 30.24h.38V55.64zM817.1 77.82q0 7.17-2.68 12.28-2.66 5.1-7.28 7.8a20 20 0 0 1-10.42 2.7q-5.82 0-10.44-2.7a19.4 19.4 0 0 1-7.27-7.82q-2.67-5.11-2.67-12.26 0-7.17 2.66-12.26a19 19 0 0 1 7.28-7.82q4.62-2.7 10.44-2.71 5.83 0 10.42 2.7 4.62 2.72 7.28 7.83 2.7 5.1 2.69 12.26m-8.07 0q0-5.05-1.58-8.51a11.7 11.7 0 0 0-4.34-5.27 11.5 11.5 0 0 0-6.39-1.8q-3.6 0-6.39 1.8a12 12 0 0 0-4.35 5.27q-1.56 3.45-1.56 8.5t1.56 8.54a12 12 0 0 0 4.35 5.27 11.6 11.6 0 0 0 6.4 1.77q3.61 0 6.38-1.77 2.78-1.8 4.34-5.27 1.58-3.48 1.58-8.53M726.15 55.64h9.84l13.16 32.14h.52l13.18-32.14h9.83V100h-7.71V69.52h-.41L752.3 99.87h-5.77l-12.26-30.41h-.4V100h-7.72zM672.97 55.64h9.07l10.86 19.62h.43l10.85-19.62h9.08l-16.14 27.81V100h-8.01V83.45zM642.02 100V55.64h16.63q5.12 0 8.58 1.77a12 12 0 0 1 5.27 4.98q1.8 3.19 1.8 7.43 0 4.28-1.82 7.41a12 12 0 0 1-5.31 4.83q-3.51 1.7-8.62 1.7H646.7v-6.68h10.76q3 0 4.9-.82a6 6 0 0 0 2.81-2.45 8 8 0 0 0 .94-3.99q0-2.36-.94-4.02a6 6 0 0 0-2.83-2.56 12 12 0 0 0-4.92-.89h-7.37V100zm22.92-20.1 10.98 20.1h-8.97l-10.79-20.1zM638.39 77.82q0 7.17-2.7 12.28-2.66 5.1-7.27 7.8a20 20 0 0 1-10.42 2.7q-5.82 0-10.44-2.7a19.4 19.4 0 0 1-7.28-7.82q-2.66-5.11-2.66-12.26 0-7.17 2.66-12.26 2.7-5.12 7.28-7.82 4.62-2.7 10.44-2.71 5.83 0 10.42 2.7 4.62 2.72 7.28 7.83 2.68 5.1 2.68 12.26m-8.08 0q0-5.05-1.59-8.51a11.7 11.7 0 0 0-4.33-5.27 11.5 11.5 0 0 0-6.39-1.8q-3.62 0-6.39 1.8a12 12 0 0 0-4.35 5.27q-1.56 3.45-1.56 8.5t1.56 8.54a12 12 0 0 0 4.35 5.27 11.6 11.6 0 0 0 6.4 1.77q3.6 0 6.38-1.77 2.78-1.8 4.33-5.27 1.59-3.48 1.59-8.53M562.46 62.37v-6.73h35.4v6.73h-13.72V100h-7.97V62.37zM552.87 67.83a6 6 0 0 0-2.56-4.42q-2.23-1.58-5.8-1.58-2.52 0-4.32.76t-2.75 2.06a5 5 0 0 0-.34 5.37 6 6 0 0 0 1.75 1.73q1.1.7 2.45 1.17 1.35.48 2.7.8l4.16 1.04q2.52.6 4.84 1.59 2.34 1 4.18 2.5a11 11 0 0 1 2.94 3.67q1.1 2.14 1.09 5.02 0 3.9-2 6.87a13 13 0 0 1-5.76 4.62q-3.75 1.64-9.08 1.64a23 23 0 0 1-8.99-1.6 13.4 13.4 0 0 1-5.93-4.68 14 14 0 0 1-2.3-7.5h7.91q.18 2.32 1.43 3.86a7.6 7.6 0 0 0 3.27 2.3q2.04.75 4.55.75 2.62 0 4.6-.78a7.5 7.5 0 0 0 3.11-2.2 5.3 5.3 0 0 0 1.15-3.34 4.2 4.2 0 0 0-1.02-2.86 7.5 7.5 0 0 0-2.8-1.9 27 27 0 0 0-4.15-1.4l-5.05-1.3q-5.48-1.4-8.66-4.26-3.17-2.88-3.17-7.65 0-3.92 2.13-6.86a14 14 0 0 1 5.82-4.57 20 20 0 0 1 8.34-1.65q4.72 0 8.28 1.65a13.5 13.5 0 0 1 5.6 4.52 11.6 11.6 0 0 1 2.1 6.63zM524.02 55.64V100h-8.04V55.64zM474.55 100V55.64h8.04v18.78h20.56V55.64h8.06V100h-8.06V81.15h-20.56V100zM426.07 100V55.64h8.04v20.38h.54l17.3-20.38h9.82l-17.16 19.9L461.92 100h-9.66l-13.24-19.02-4.91 5.8V100zM422.68 70.6h-8.1q-.36-1.98-1.28-3.53a9.5 9.5 0 0 0-5.48-4.26 12 12 0 0 0-3.8-.57q-3.6 0-6.4 1.82a12 12 0 0 0-4.38 5.29q-1.58 3.45-1.58 8.47 0 5.1 1.58 8.58a12 12 0 0 0 4.37 5.24q2.8 1.75 6.4 1.75 1.98 0 3.72-.52 1.76-.53 3.14-1.58a9.66 9.66 0 0 0 3.7-6.02l8.1.04q-.44 3.17-1.97 5.94a17.5 17.5 0 0 1-9.6 8.19 21 21 0 0 1-7.2 1.17q-5.85 0-10.45-2.71a19 19 0 0 1-7.23-7.82q-2.64-5.11-2.64-12.26 0-7.17 2.66-12.26 2.67-5.12 7.26-7.82t10.4-2.71q3.7 0 6.88 1.04 3.2 1.05 5.68 3.05a16 16 0 0 1 4.1 4.9 18 18 0 0 1 2.12 6.58M352.3 100h-8.57l15.62-44.36h9.92L384.91 100h-8.58l-11.85-35.27h-.34zm.29-17.4h23.4v6.46h-23.4zM314.36 100V55.64h8.03v37.62h19.54V100zM278.23 100V55.64h16.98q4.82 0 8 1.51 3.2 1.5 4.79 4.1a11 11 0 0 1 1.6 5.89q0 2.7-1.04 4.63a9 9 0 0 1-2.8 3.1q-1.75 1.2-3.92 1.71v.44a9.6 9.6 0 0 1 4.53 1.45q2.19 1.3 3.57 3.68 1.4 2.39 1.4 5.76 0 3.44-1.68 6.2a11.4 11.4 0 0 1-5.02 4.3q-3.36 1.59-8.45 1.59zm8.04-6.72h8.64q4.38 0 6.3-1.66a5.5 5.5 0 0 0 1.96-4.34 6.6 6.6 0 0 0-3.75-6.06 9 9 0 0 0-4.3-.93h-8.85zm0-18.78h7.95q2.07 0 3.75-.75a5.85 5.85 0 0 0 3.6-5.57 5.5 5.5 0 0 0-1.83-4.25q-1.8-1.66-5.35-1.67h-8.12z"/><path fill="#ffd674" d="M228.81 62.37v-6.73h35.4v6.73H250.5V100h-7.98V62.37zM226.02 55.64V100H218V55.64zM214.35 77.82q0 7.17-2.68 12.28-2.67 5.1-7.28 7.8a20 20 0 0 1-10.42 2.7q-5.83 0-10.44-2.7a19.4 19.4 0 0 1-7.28-7.82q-2.66-5.11-2.66-12.26 0-7.17 2.66-12.26 2.7-5.12 7.28-7.82 4.61-2.7 10.44-2.71t10.42 2.7q4.62 2.72 7.28 7.83 2.68 5.1 2.68 12.26m-8.08 0q0-5.05-1.58-8.51a11.7 11.7 0 0 0-4.33-5.27 11.5 11.5 0 0 0-6.39-1.8q-3.62 0-6.39 1.8a12 12 0 0 0-4.35 5.27q-1.56 3.45-1.56 8.5t1.56 8.54a12 12 0 0 0 4.35 5.27 11.6 11.6 0 0 0 6.39 1.77q3.61 0 6.4-1.77 2.76-1.8 4.32-5.27 1.59-3.48 1.58-8.53M139 100V55.64h16.64q5.1 0 8.58 1.77a12 12 0 0 1 5.26 4.98q1.8 3.19 1.8 7.43 0 4.28-1.82 7.41a12 12 0 0 1-5.3 4.83q-3.52 1.7-8.63 1.7h-11.85v-6.68h10.77q2.99 0 4.9-.82a6 6 0 0 0 2.81-2.45q.93-1.62.93-3.99 0-2.36-.93-4.02a6 6 0 0 0-2.84-2.56 12 12 0 0 0-4.91-.89h-7.37V100zm22.92-20.1 10.99 20.1h-8.97l-10.8-20.1zM100.75 62.37v-6.73h35.4v6.73h-13.72V100h-7.97V62.37zM69.61 100V55.64h28.86v6.73H77.65v12.05h19.32v6.73H77.65v12.11h20.99V100zM44.4 100H29.39V55.64H44.7q6.6 0 11.35 2.66a18 18 0 0 1 7.32 7.6q2.55 4.97 2.56 11.87 0 6.94-2.58 11.92a18 18 0 0 1-7.38 7.65Q51.16 100 44.4 100m-6.99-6.95h6.6q4.65 0 7.74-1.7a10.8 10.8 0 0 0 4.66-5.08q1.56-3.4 1.56-8.5 0-5.08-1.56-8.44a10.6 10.6 0 0 0-4.61-5.05q-3.04-1.7-7.54-1.69H37.4z"/><defs><radialGradient id="b" cx="0" cy="0" r="1" gradientTransform="rotate(128.03 260.56 206.19)scale(580.22 348.408)" gradientUnits="userSpaceOnUse"><stop stop-color="#dcc795"/><stop offset=".63" stop-color="#fff"/><stop offset="1" stop-color="#dcc795"/></radialGradient><radialGradient id="c" cx="0" cy="0" r="1" gradientTransform="rotate(128.03 260.56 206.19)scale(580.22 348.408)" gradientUnits="userSpaceOnUse"><stop stop-color="#dcc795"/><stop offset=".63" stop-color="#fff"/><stop offset="1" stop-color="#dcc795"/></radialGradient><radialGradient id="d" cx="0" cy="0" r="1" gradientTransform="rotate(128.03 260.56 206.19)scale(580.22 348.408)" gradientUnits="userSpaceOnUse"><stop stop-color="#dcc795"/><stop offset=".63" stop-color="#fff"/><stop offset="1" stop-color="#dcc795"/></radialGradient><radialGradient id="e" cx="0" cy="0" r="1" gradientTransform="rotate(128.03 260.56 206.19)scale(580.22 348.408)" gradientUnits="userSpaceOnUse"><stop stop-color="#dcc795"/><stop offset=".63" stop-color="#fff"/><stop offset="1" stop-color="#dcc795"/></radialGradient><radialGradient id="f" cx="0" cy="0" r="1" gradientTransform="rotate(128.03 260.56 206.19)scale(580.22 348.408)" gradientUnits="userSpaceOnUse"><stop stop-color="#dcc795"/><stop offset=".63" stop-color="#fff"/><stop offset="1" stop-color="#dcc795"/></radialGradient><radialGradient id="g" cx="0" cy="0" r="1" gradientTransform="rotate(128.03 260.56 206.19)scale(580.22 348.408)" gradientUnits="userSpaceOnUse"><stop stop-color="#dcc795"/><stop offset=".63" stop-color="#fff"/><stop offset="1" stop-color="#dcc795"/></radialGradient><radialGradient id="h" cx="0" cy="0" r="1" gradientTransform="rotate(128.03 260.56 206.19)scale(580.22 348.408)" gradientUnits="userSpaceOnUse"><stop stop-color="#dcc795"/><stop offset=".63" stop-color="#fff"/><stop offset="1" stop-color="#dcc795"/></radialGradient><radialGradient id="i" cx="0" cy="0" r="1" gradientTransform="rotate(128.03 260.56 206.19)scale(580.22 348.408)" gradientUnits="userSpaceOnUse"><stop stop-color="#dcc795"/><stop offset=".63" stop-color="#fff"/><stop offset="1" stop-color="#dcc795"/></radialGradient><radialGradient id="j" cx="0" cy="0" r="1" gradientTransform="rotate(128.03 260.56 206.19)scale(580.22 348.408)" gradientUnits="userSpaceOnUse"><stop stop-color="#dcc795"/><stop offset=".63" stop-color="#fff"/><stop offset="1" stop-color="#dcc795"/></radialGradient><radialGradient id="k" cx="0" cy="0" r="1" gradientTransform="rotate(128.03 260.56 206.19)scale(580.22 348.408)" gradientUnits="userSpaceOnUse"><stop stop-color="#dcc795"/><stop offset=".63" stop-color="#fff"/><stop offset="1" stop-color="#dcc795"/></radialGradient><radialGradient id="l" cx="0" cy="0" r="1" gradientTransform="rotate(128.03 260.56 206.19)scale(580.22 348.408)" gradientUnits="userSpaceOnUse"><stop stop-color="#dcc795"/><stop offset=".63" stop-color="#fff"/><stop offset="1" stop-color="#dcc795"/></radialGradient><radialGradient id="m" cx="0" cy="0" r="1" gradientTransform="rotate(128.03 260.56 206.19)scale(580.22 348.408)" gradientUnits="userSpaceOnUse"><stop stop-color="#dcc795"/><stop offset=".63" stop-color="#fff"/><stop offset="1" stop-color="#dcc795"/></radialGradient><radialGradient id="n" cx="0" cy="0" r="1" gradientTransform="rotate(128.03 260.56 206.19)scale(580.22 348.408)" gradientUnits="userSpaceOnUse"><stop stop-color="#dcc795"/><stop offset=".63" stop-color="#fff"/><stop offset="1" stop-color="#dcc795"/></radialGradient><radialGradient id="o" cx="0" cy="0" r="1" gradientTransform="rotate(128.03 260.56 206.19)scale(580.22 348.408)" gradientUnits="userSpaceOnUse"><stop stop-color="#dcc795"/><stop offset=".63" stop-color="#fff"/><stop offset="1" stop-color="#dcc795"/></radialGradient><radialGradient id="p" cx="0" cy="0" r="1" gradientTransform="rotate(128.03 260.56 206.19)scale(580.22 348.408)" gradientUnits="userSpaceOnUse"><stop stop-color="#dcc795"/><stop offset=".63" stop-color="#fff"/><stop offset="1" stop-color="#dcc795"/></radialGradient><radialGradient id="q" cx="0" cy="0" r="1" gradientTransform="rotate(128.03 260.56 206.19)scale(580.22 348.408)" gradientUnits="userSpaceOnUse"><stop stop-color="#dcc795"/><stop offset=".63" stop-color="#fff"/><stop offset="1" stop-color="#dcc795"/></radialGradient><filter id="a" width="1124.24" height="97.99" x="22.45" y="100.01" color-interpolation-filters="sRGB" filterUnits="userSpaceOnUse"><feFlood flood-opacity="0" result="BackgroundImageFix"/><feColorMatrix in="SourceAlpha" result="hardAlpha" values="0 0 0 0 0 0 0 0 0 0 0 0 0 0 0 0 0 0 127 0"/><feOffset/><feGaussianBlur stdDeviation="3.45"/><feComposite in2="hardAlpha" operator="out"/><feColorMatrix values="0 0 0 0 0.278431 0 0 0 0 0.317647 0 0 0 0 0.729412 0 0 0 0.68 0"/><feBlend in2="BackgroundImageFix" result="effect1_dropShadow_24_6691"/><feBlend in="SourceGraphic" in2="effect1_dropShadow_24_6691" result="shape"/></filter></defs></svg>