<svg fill="none" height="509" viewBox="0 0 512 509" width="512" xmlns="http://www.w3.org/2000/svg" xmlns:xlink="http://www.w3.org/1999/xlink"><clipPath id="a"><path d="m0 0h512v509h-512z"/></clipPath><g clip-path="url(#a)"><path d="m508.428 224.537c-5.458-8.228-21.185-10.558-32.794-13.581-14.636-2.082-26.195-13.383-28.726-27.906-3.125-8.724-6.797-17.2-11.063-25.428-1.637-4.61-1.637-9.566 0-14.176 5.705-13.829 13.048-26.964 18.853-40.793 1.041-4.0153.248-8.278-2.233-11.5989-10.022-11.5986-21.284-21.165-31.405-32.0697-3.373-4.6592-9.922-5.7001-14.635-2.3296-.05 0-.1.0496-.149.0991-11.61 6.3941-25.005 11.5986-37.21 18.1414-5.556 3.321-12.502 3.321-18.009 0-11.609-5.7993-24.062-9.6655-35.721-15.3161-4.713-2.3792-8.583-6.1958-10.914-10.9046-5.607-12.8874-10.221-26.3695-14.537-39.85163-1.141-5.70017-6.549-9.516799-12.353-8.575033h-43.858c-4.862.644366-9.178 3.519233-11.609 7.781963-5.705 13.383-9.873 27.4104-15.231 40.8925-1.588 3.9158-4.416 7.1376-8.037 9.3185-15.479 7.0881-31.405 18.6867-46.537 18.3397-15.131-.347-30.958-12.6891-46.536-19.7771l-.943-.6939c-3.82-3.321-9.6246-2.8749-12.9486.9417-.2977.347-.5457.6444-.7442 1.0409-10.4682 10.8056-21.1845 20.4711-31.6527 32.0697-2.7783 3.7175-3.6217 8.575-2.3318 13.0361 5.7055 13.829 13.0481 26.964 18.952 40.793 1.4387 4.263 1.4387 8.873 0 13.135-5.0109 12.789-10.369 26.023-16.2729 37.671-2.0837 4.461-5.6062 8.079-10.0217 10.359-13.0481 5.453-26.5426 10.211-40.03722 14.524-6.25116.991-10.567441 6.84-9.6744175 13.135 0 14.077.5953485 28.253 0 42.429-.5953485 6.047 3.6217075 11.549 9.6744175 12.54 13.14732 4.164 26.29462 8.724 38.84652 14.077 4.9612 2.231 9.0791 5.998 11.6093 10.806 5.8543 11.995 11.0139 24.287 15.4791 36.828 1.7364 4.956 1.7364 10.359 0 15.316-5.8047 13.73-13.1473 26.369-18.6047 39.851-1.2899 4.511-.4465 9.368 2.3318 13.135 9.6744 10.806 20.8372 20.471 30.6108 31.128 3.8202 4.858 10.7663 5.849 15.8263 2.33 12.552-6.642 25.6-12.441 38.4-18.488l7.343-3.123c9.625 5.551 19.845 10.062 30.462 13.383 16.57 3.073 29.321 16.357 31.752 33.011 2.927 10.707 5.457 24.734 13.246 30.087s21.879 1.884 33.29 1.983c26.047 0 27.237 0 34.878-24.883 4.465-20.322 19.448-36.728 39.293-42.974 17.066-8.476 37.259-7.732 53.631 1.983 25.798 14.523 26.642 13.135 47.578-7.683 23.268-22.553 23.864-23.247 8.583-51.252-8.633-15.415-9.178-34.052-1.488-49.963 6.449-21.165 24.111-36.977 45.841-41.14 23.269-6.295 23.269-7.535 23.269-31.029-1.042-12.441 2.431-27.758-3.473-36.481zm-253.321 185.925c-89.253-.694-161.5878-72.516-162.8281-161.637 0-89.865 72.9801-162.6781 162.9271-162.6285 89.898 0 162.729 72.8135 162.778 162.6285-1.091 89.269-73.525 161.19-162.828 161.785v-.099z" fill="#00c605"/><g fill="#ee7d33"><path d="m350.809 163.322c-42.22 14.969-84.44 29.889-126.66 44.957l20.242 18.686c3.324-1.04 6.747-1.536 10.22-1.487 16.521-.545 30.363 12.343 31.057 28.799 0 3.122-.546 6.245-1.637 9.17l20.341 18.686c16.074-38.117 32.05-76.283 47.926-114.449.595-1.487 1.042-3.024 1.984-5.353l-3.473.941z"/><path d="m263.343 281.836c-2.878.743-5.855 1.14-8.831 1.14-16.472.595-30.413-12.144-31.306-28.6 0-2.825.447-5.651 1.29-8.377l-20.341-18.687c-14.437 34.301-28.825 68.65-43.163 102.95l-6.648 16.06 3.622-1.041 125.867-44.759z"/></g></g></svg>