<svg fill="none" viewBox="0 0 24 24" xmlns="http://www.w3.org/2000/svg"><g fill="#fff"><path d="m1.44489 10.7653c-.762617 1.0949-.520595 2.6203.54056 3.4071l5.05431 3.7479c1.06115.7869 2.53955.5372 3.30214-.5577.7626-1.0949.5206-2.6203-.54053-3.4072l-5.05431-3.7478c-1.06115-.78689-2.53955-.53718-3.30217.5577z"/><path d="m13.6583 7.01677c-.7626 1.09489-.5206 2.62027.5405 3.40713l5.0543 3.7479c1.0612.7868 2.5396.5371 3.3022-.5578.7626-1.0948.5206-2.6202-.5406-3.4071l-5.0543-3.74787c-1.0611-.78686-2.5395-.53714-3.3021.55774z"/><path d="m18.9551 14.5732c.5365.3979 1.1604.574 1.7724.5528l-3.7675 2.7939c-1.0612.7869-2.5402.5373-3.3028-.5576-.7623-1.0949-.52-2.6204.541-3.4072l1.961-1.4551zm2.7617-3.9648c.8402.6232 1.0383 1.8431.4277 2.7197-.6042.8674-1.7631 1.058-2.5937.4424l-2.5518-1.8926 2.253-1.6699c.3968-.29422.8524-.44364 1.3066-.458z"/><path d="m1.85596 11.0508c.60432-.8672 1.76316-1.05811 2.59375-.4424l2.55078 1.8916-2.25293 1.6719c-.39657.294-.85169.4425-1.30567.457l-1.1582-.8584c-.84035-.6232-1.03839-1.843-.42773-2.7197zm5.18359-4.59182c1.06115-.78685 2.54011-.53725 3.30275.55762.7626 1.09489.5201 2.62037-.54103 3.4072l-1.96094 1.4541-2.79492-2.07224c-.5367-.39795-1.16108-.5741-1.77344-.55273z"/></g></svg>