<svg fill="none" viewBox="0 0 24 24" xmlns="http://www.w3.org/2000/svg"><g fill="#fff"><path d="m17.9052 18.0693h-2.2252c-.1398-.0001-.2738-.0557-.3727-.1545-.0988-.0989-.1544-.2329-.1545-.3727v-9.85967c.0013-.13943.0572-.27281.1558-.3714.0986-.0986.232-.15453.3714-.15576h2.2252c.1398.00005.2739.05561.3728.15445.0988.09885.1544.23291.1545.37271v9.86647c-.0015.1387-.0577.2713-.1565.3687-.0987.0975-.232.152-.3708.1517z"/><path d="m18.3778 17.5487v-9.86634c-.0032-.13352-.0563-.261-.1488-.35732s-.2178-.1545-.3511-.16309c.0707-.00398.1414.00655.2079.03094.0664.02439.1272.06212.1785.11087s.0921.10749.1199.1726c.0277.06511.0419.13522.0415.206v9.86634z" opacity=".3"/><path d="m15.2075 17.5762h-.0478v-9.86631c-.005-.08034.0092-.1607.0413-.23449.0322-.0738.0813-.13891.1435-.19001.084-.06886.1863-.11171.2943-.12328h2.2937c.0818.00424.1616.02748.2329.06789.0713.0404.1322.09686.1779.16489.0599.09401.0909.20354.0891.315-.0008-.13233-.0537-.25902-.1473-.35259-.0936-.09356-.2203-.14645-.3526-.14719h-2.2253c-.1209-.00318-.2388.03837-.331.1167-.0923.07832-.1524.18792-.1688.3078-.0069.08213-.0069.17119-.0069.19856z" opacity=".3"/><path d="m9.19605 18.0693-2.18438-.0411c-.28753 0-.56831-.1917-.56831-.4793v-9.86647c.00007-.1398.05565-.27386.15451-.37271.09887-.09884.23293-.1544.37274-.15445h2.22525c.1398.00005.27387.05561.37273.15445.09887.09885.15444.23291.15452.37271v9.86647c-.00264.1383-.05922.2702-.15769.3674-.09846.0972-.23101.1521-.36937.153z"/><path d="m10.9009 11.2838 4.3067 6.4841c.0425.0966.1141.1776.2049.2316.0907.054.1961.0784.3013.0697h2.1979c.5683 0 .5957-.6915.5062-.849l-4.3751-6.4909c-.0506-.0902-.124-.1655-.2128-.2184-.0889-.0529-.19-.0815-.2934-.0829"/><path d="m15.7553 18.0765c-.2122 0-.3971-.0342-.5409-.2875l-2.7525-4.1492-1.5405-2.3422.0411-.0273 4.2861 6.4772.0137.0273c.137.2397.2944.3013.4929.3013z" opacity=".4"/><path d="m9.71633 12.5506h-.02053l.00684-4.89556.01369-.00685z" opacity=".3"/><path d="m6.49154 17.3913h-.0479v-9.70173c-.00113-.02758.00117-.0552.00684-.08222.00986-.07053.03371-.13838.07016-.19955.03645-.06118.08476-.11446.14209-.1567.08774-.06308.19326-.09663.30131-.09581h2.25263c.07398.0023.14658.02064.21278.05374s.12443.08018.17066.13798c.07169.08442.11273.19061.11644.30131h-.01369c-.01507-.12162-.07297-.2339-.16332-.31671s-.20724-.13073-.32971-.13517h-2.25272c-.07108-.00014-.14127.01582-.2053.04667-.06404.03085-.12026.07579-.16445.13146-.08258.10574-.12828.2356-.13013.36975z" opacity=".3"/><path d="m17.9052 18.076h-2.1909c-.2123 0-.3563-.0411-.5063-.3012l.0411-.0274c.1369.2396.267.2738.4587.2738h2.191c.0831.0067.1663-.0112.2393-.0513.073-.0402.1327-.1009.1715-.1746.1233-.2123.1096-.4519.0616-.5344l-4.3961-6.5111.0411-.0274 4.3957 6.5114c.0617.1096.0137.4793-.0616.5889-.042.0804-.1064.1471-.1853.1921-.0789.0449-.1691.0661-.2598.0612z" opacity=".3"/><path d="m9.237 18.0692h-2.23894c-.45872 0-.67781-.4382-.50625-.849l4.40939-6.4909c.0506-.0902.124-.1655.2129-.2184.0888-.0529.19-.0815.2934-.0829h2.1366c.0992.0005.1965.0269.2824.0766.0858.0497.1572.121.207.2068s.0764.1831.077.2823-.0247.1969-.0734.2833l-4.29301 6.484c-.04918.0921-.12219.1692-.21139.2234-.08921.0543-.19133.0835-.2957.0848z"/><path d="m7.34762 18.0692h-.32185c-.09741.0049-.19447-.0151-.28194-.0583-.08748-.0431-.16247-.1079-.21784-.1882-.05464-.0899-.08635-.1919-.09233-.297-.00599-.105.01394-.21.05802-.3055l.00684-.0069 4.40218-6.4841c.0534-.0903.1296-.165.2209-.2167s.1945-.0784.2995-.0777h2.1362c.0786.0003.156.0191.226.0548.0532.0264.1017.0612.1438.1031.0418.0395.0767.0858.1031.137 0 0-.2807-.2396-.4724-.2396h-2.1364c-.097-.0013-.1927.0234-.2769.0716-.0843.0482-.1542.118-.2023.2023l-4.40946 6.484c-.04023.0879-.05874.1841-.05398.2807.00476.0965.03267.1905.08136.2739.04858.0757.11544.138.19441.1811.07897.043.16751.0656.25746.0654l.33553.0205z" opacity=".3"/><path d="m9.23718 18.0691h-2.29369c-.10671-.0072-.20902-.0453-.29447-.1096l-.08213-.0821c.11246.0707.23836.1174.36975.137.08213.0068 2.28.0068 2.30738.0068.09976-.002.19723-.0303.28257-.082s.15554-.125.20352-.2125l4.28619-6.484c.0456-.0825.0679-.1758.0643-.27-.0037-.0942-.033-.1857-.0849-.2644-.0366-.0793-.0932-.1477-.1643-.1985-.0821-.0479-.1233-.075 0 0 .1283.0732.2234.193.2655.3346s.0279.294-.0396.4254v.0068c-.3562.541-.9449 1.431-1.575 2.3828-1.2735 1.9239-2.71131 4.1013-2.71131 4.1013-.15038.1988-.32156.3084-.53381.3084z" opacity=".3"/><g opacity=".3"><path d="m7.46445 19.5207c-.00394-.0907-.04362-.1762-.11037-.2377-.06674-.0616-.15514-.0943-.24588-.0909l-2.547-.0205c-.0644-.0021-.12754-.0185-.18487-.0479l-.00685-.0069c-.01516-.0066-.02906-.0159-.04106-.0273l-.01397-.0138c.03744.0312.08223.0524.13013.0616.00684 0 .03422.0068.04106.0068h2.61563c.07624-.0004.15061.0236.21225.0685.04514.0336.08069.0785.10312.1301.03328.0533.04992.1152.04781.178z"/><path d="m2.34239 3.88232h4.77187c.09114.001.17836.03718.24344.10099.06508.0638.10298.15029.10578.24139 0-.17813-.20541-.30122-.34922-.30122h-4.77187c-.00959-.0003-.01906.00207-.02738.00684l-.06159-.03422c.02881-.00898.05879-.01362.08897-.01378z"/></g><g opacity=".3"><path d="m20.2879 6.07349c.2055 0 .3697.12328.3697.32868l.0069 12.38603c.0048.111-.0346.2194-.1096.3013-.0412.0388-.0896.069-.1425.0889-.0528.02-.1091.0293-.1656.0275h-2.5333c-.0403-.0015-.0805.0052-.1181.0197s-.0719.0365-.1007.0647c-.0289.0282-.0517.062-.067.0993-.0154.0373-.023.0773-.0224.1176v1.4584c-.0041.0948.0277.1877.089.2601.0604.0538.1334.0915.2122.1096-.0185.0016-.0372-.0007-.0548-.0068-.0864-.0121-.1652-.0559-.2209-.1231-.0558-.0671-.0844-.1527-.0803-.2398v-1.4585c-.0015-.0472.0067-.0942.024-.1381.0174-.0439.0436-.0838.077-.1172.0333-.0333.0732-.0595.1171-.0769s.0909-.0255.1381-.024h2.5332c.0503.0019.1003-.0063.1474-.024.047-.0177.09-.0446.1265-.0792.0342-.035.0605-.0769.077-.123.0166-.0461.023-.0952.0189-.144v-12.38537c.0001-.04228-.0082-.08416-.0243-.12323-.0162-.03908-.0399-.07458-.0698-.10448s-.0654-.05361-.1044-.06976c-.0391-.01615-.081-.02444-.1233-.02437z"/><path d="m17.7203 6.08021c-.0487.00181-.0973-.00657-.1426-.0246s-.0863-.04533-.1205-.08013c-.0341-.0348-.0606-.07635-.0778-.12199-.0172-.04563-.0246-.09435-.0219-.14303v-1.49944c.0047-.08921.0436-.17318.1086-.23441.0651-.06123.1513-.095.2406-.09427.0068 0 3.9094.00684 4.7449 0 .0685.00135.1352.02276.1917.06159l-.0684-.01369h-4.8613c-.0385-.00163-.0769.00464-.1129.01843s-.0688.0348-.0964.06175c-.0276.02694-.0494.05925-.064.09493-.0146.03567-.0218.07397-.021.11252l-.0137 1.49943c0 .17813.1301.36975.3081.36975"/></g><path d="m7.11462 21.3488h-4.7654c-.09251-.0004-.18112-.0373-.24653-.1027s-.10232-.154-.10269-.2465v-16.76806c.00037-.0925.03728-.18111.10269-.24652s.15402-.10233.24653-.1027h4.7655c.0925.00037.18111.03729.24653.1027.06541.06541.10232.15402.10269.24652v1.48575c-.00037.09251-.03728.18112-.10269.24653-.06542.06541-.15403.10232-.24653.10269h-2.58141c-.09249.0004-.18109.03732-.2465.10272-.0654.06541-.10232.154-.10272.2465v12.38607c.0004.0925.03732.1811.10272.2465.06541.0654.15401.1023.2465.1027h2.58131c.09251.0004.18112.0373.24653.1027s.10232.154.10269.2465v1.4995c-.00039.0925-.03732.181-.10272.2464-.06541.0654-.15401.1023-.2465.1027z"/><g opacity=".3"><path d="m2.34224 21.3487c-.06462-.0016-.12754-.021-.18187-.056-.05434-.0351-.09799-.0843-.12619-.1425.03362.0499.07978.0901.13385.1166.05408.0264.11416.0382.17421.034h4.76541c.07713.0043.15282-.0221.21055-.0734s.09282-.1234.0976-.2005l.01369-1.4926c-.00215-.0459-.00672-.0916-.01369-.137l-.02737-.1095.02053.0343c.02903.0525.04543.1111.04791.1711v1.5338c-.00789.0887-.04898.1711-.11503.2307-.06606.0597-.15222.0922-.24122.091z"/><path d="m4.49914 19.151c-.08896 0-.36975-.1164-.36975-.3219v-12.39286c0-.20541.1575-.43125.36291-.43125h2.55394c.17118 0 .3629-.08222.3629-.2671v-1.48575c0-.17812-.14381-.37659-.32175-.37659.05939-.00461.11897.0062.17294.0314.05398.0252.10053.06392.13513.11241.05096.06638.07537.14938.06843.23278v1.47188c-.0005.01617-.0028.03224-.00684.0479-.00799.04912-.02668.09588-.05475.13697-.03474.04751-.07907.08718-.13013.11644-.07048.03282-.1489.0447-.22593.03422h-2.52656c-.05591.00121-.1104.01778-.1575.04791-.05718.03293-.1041.08108-.13555.1391-.03145.05801-.04619.1236-.04258.18949v12.38625c.00175.0687.0284.1344.075.1849.02709.0399.06256.0735.10395.0983.04138.0249.08768.0404.13568.0455z"/></g><path d="m17.7066 3.88232h4.7449c.0925.0004.1811.03732.2465.10273s.1023.154.1026.24649v16.76816c-.0003.0925-.0372.1811-.1026.2465s-.154.1023-.2465.1027h-4.7449c-.0925-.0004-.1811-.0373-.2465-.1027s-.1023-.154-.1027-.2465v-1.4859c.0004-.0925.0373-.1811.1027-.2465s.154-.1023.2465-.1027h2.5676c.0925-.0004.1811-.0373.2465-.1027.0654-.0653.1023-.1539.1027-.2464v-12.39255c-.0004-.09251-.0373-.18112-.1027-.24653s-.154-.10232-.2465-.10269h-2.5676c-.0925-.00037-.1811-.03728-.2465-.10269s-.1023-.15402-.1027-.24653v-1.49981c.0018-.09142.0394-.17848.1047-.2425.0653-.06401.1531-.09987.2445-.09988z"/><path d="m22.561 21.3284c.057-.0337.1042-.0818.1366-.1395.0325-.0577.0491-.123.0483-.1892v-16.74766c.0011-.06813-.0153-.1354-.0477-.19535-.0323-.05996-.0796-.11058-.1372-.14702.0704.02674.1306.07475.1723.13736.0417.0626.0629.13666.0605.21186v16.74751c-.0002.0713-.0227.1407-.0645.1985s-.1006.101-.1683.1235z" opacity=".3"/><path d="m22.4997 21.3424c-.0137 0-.0411.0068-.0548.0068h-4.6627c-.0526.0015-.1052-.0008-.1575-.0068-.0475-.0104-.092-.0314-.13-.0616l-.0206-.0205-.0137-.0137c.0419.0198.0855.0358.1302.0479.0635.0088.1277.0111.1917.0068h.0411l4.6353.0069c.0867-.0016.1714-.0252.2465-.0685l-.0205.0206c-.0381.0367-.0854.0626-.1369.075-.007-.0002-.0343.0071-.0481.0071z" opacity=".3"/><path d="m17.3574 5.71045c0 .17812.1849.32175.3629.32175h2.5677c.2054 0 .3285.15066.3285.35625-.0074-.08333-.0449-.16113-.1053-.21901-.0604-.05789-.1397-.09195-.2232-.0959h-2.5677c-.0876.00172-.1729-.02865-.2397-.0854-.0669-.05675-.1107-.13597-.1232-.22275z" opacity=".4"/><path d="m2.26033 3.88916.06159.03422c-.07201.01265-.13761.04933-.18609.10405-.04849.05472-.07701.12425-.08091.19726v16.74751c-.00112.0681.01529.1354.04767.1954.03237.0599.07962.1105.13721.147-.07032-.0268-.13053-.0748-.17226-.1374s-.06289-.1367-.06053-.2119v-16.74745c.00085-.07485.02602-.1474.07172-.20669.04569-.05929.10943-.10211.1816-.122z" opacity=".4"/></g></svg>